<?xml version="1.0" standalone="no"?>
<!DOCTYPE svg PUBLIC "-//W3C//DTD SVG 20010904//EN"
 "http://www.w3.org/TR/2001/REC-SVG-20010904/DTD/svg10.dtd">
<svg version="1.0" xmlns="http://www.w3.org/2000/svg"
 width="3000.000000pt" height="2100.000000pt" viewBox="0 0 3000.000000 2100.000000"
 preserveAspectRatio="xMidYMid meet">

<g transform="translate(0.000000,2100.000000) scale(0.100000,-0.100000)"
fill="#000000" stroke="none">
<path d="M7708 15070 c-12 -28 -19 -148 -8 -155 5 -3 12 5 15 17 8 31 2 157
-7 138z"/>
<path d="M20017 15054 c-3 -6 -30 -112 -58 -234 -28 -123 -62 -255 -75 -294
-35 -101 -64 -194 -128 -411 -80 -276 -315 -984 -578 -1745 -430 -1244 -511
-1485 -537 -1601 -11 -51 -2 -103 20 -107 11 -2 13 7 11 40 -3 47 63 247 478
1443 122 352 254 735 294 850 114 328 300 908 370 1155 142 498 250 977 203
904z"/>
<path d="M8695 14513 c-150 -8 -439 -35 -462 -44 -14 -5 -78 -16 -142 -25
-174 -22 -372 -54 -407 -65 -39 -12 -48 -35 -63 -159 -17 -153 -42 -271 -58
-277 -18 -7 -51 23 -55 51 -6 41 -54 -63 -108 -233 -28 -90 -58 -174 -65 -185
-17 -27 -55 -149 -284 -921 -356 -1201 -651 -2226 -651 -2264 0 -11 5 -21 10
-21 6 0 10 -7 10 -15 0 -8 3 -15 8 -15 21 1 29 20 29 70 0 41 32 166 122 480
164 570 254 877 306 1045 24 77 85 280 135 450 242 822 378 1262 415 1338 37
80 101 157 130 157 20 0 25 8 39 73 8 39 20 100 25 134 13 84 37 130 84 164
52 37 80 45 272 74 640 95 1372 98 1922 10 257 -42 460 -90 713 -170 93 -30
126 -36 175 -32 33 2 79 -2 103 -10 50 -15 82 -4 82 27 0 16 -5 18 -27 14 -19
-4 -65 9 -143 39 -63 24 -153 57 -200 72 -47 16 -89 34 -95 41 -13 17 -341 97
-525 128 -180 30 -371 53 -560 66 -131 9 -585 11 -735 3z"/>
<path d="M19158 14194 c-21 -23 -122 -178 -224 -345 -254 -415 -443 -712 -520
-817 -35 -48 -171 -247 -303 -442 -231 -342 -619 -911 -706 -1035 -193 -274
-402 -572 -409 -583 -4 -7 -5 -26 -1 -42 6 -27 11 -30 44 -30 37 0 38 0 54 58
10 38 38 89 79 147 35 50 179 257 319 460 141 204 300 433 354 510 158 228
546 810 733 1100 188 292 255 386 323 453 44 43 66 51 86 31 12 -12 13 -10
134 330 44 123 79 228 77 235 -2 6 -20 -7 -40 -30z"/>
<path d="M6736 14149 c-397 -123 -868 -332 -1195 -528 -664 -400 -1044 -881
-1002 -1271 l7 -65 6 80 c31 364 398 793 980 1147 272 164 734 377 1054 484
133 45 202 45 241 0 16 -19 25 -23 28 -14 2 7 18 50 33 96 l29 83 -21 14 c-11
8 -23 15 -26 15 -3 -1 -63 -19 -134 -41z"/>
<path d="M8745 13514 c-266 -14 -749 -63 -775 -79 -5 -3 -10 -16 -10 -29 0
-49 -50 -280 -67 -305 -12 -19 -3 -14 33 18 27 24 65 50 84 58 19 8 49 20 65
28 60 27 312 72 475 85 69 6 160 15 202 21 81 10 790 15 806 5 5 -3 42 -6 83
-7 41 0 120 -7 175 -15 56 -7 126 -16 155 -19 30 -3 77 -10 104 -15 28 -6 68
-13 90 -15 36 -5 145 -25 320 -60 106 -21 147 -23 184 -10 66 22 49 40 -87 94
-295 116 -605 184 -1022 226 -148 15 -666 27 -815 19z"/>
<path d="M7778 12986 c-46 -31 -46 -31 -96 -186 -28 -85 -54 -166 -58 -180
-14 -54 26 13 91 149 20 40 55 114 79 162 24 49 41 89 37 88 -3 -1 -27 -15
-53 -33z"/>
<path d="M6065 12866 c-230 -108 -492 -265 -652 -391 -153 -121 -394 -367
-393 -401 0 -5 18 -29 40 -54 30 -34 42 -43 53 -35 8 6 68 57 133 114 66 57
153 126 194 154 41 28 77 53 80 57 7 8 135 91 190 123 138 79 261 145 307 166
l52 24 47 139 c25 77 44 141 43 143 -2 2 -44 -16 -94 -39z"/>
<path d="M4095 12747 c-21 -77 57 -393 138 -554 90 -178 256 -378 402 -483
175 -127 450 -391 533 -513 208 -302 338 -857 359 -1520 6 -179 7 -195 20
-167 16 39 17 165 3 375 -35 519 -125 946 -253 1200 -65 131 -163 265 -192
265 -6 0 -31 21 -55 46 -25 25 -133 126 -240 223 -107 98 -231 216 -274 262
-244 258 -391 543 -424 821 -7 61 -10 68 -17 45z"/>
<path d="M6436 12604 c-4 -14 -5 -28 -3 -31 3 -2 8 8 11 23 4 14 5 28 3 31 -3
2 -8 -8 -11 -23z"/>
<path d="M8461 12503 c-38 -135 -39 -355 -2 -497 46 -173 130 -325 266 -476
42 -47 85 -102 96 -122 11 -21 23 -38 28 -38 15 0 31 25 37 59 6 31 2 37 -94
128 -160 150 -248 279 -301 440 -30 90 -49 212 -39 248 4 16 8 57 8 90 0 33 5
91 10 129 12 78 7 97 -9 39z"/>
<path d="M6406 12504 c-4 -14 -5 -28 -3 -31 3 -2 8 8 11 23 4 14 5 28 3 31 -3
2 -8 -8 -11 -23z"/>
<path d="M6376 12404 c-4 -14 -5 -28 -3 -31 3 -2 8 8 11 23 4 14 5 28 3 31 -3
2 -8 -8 -11 -23z"/>
<path d="M9078 12409 c-28 -16 -77 -94 -100 -157 -14 -41 -21 -89 -23 -172 -3
-98 -3 -105 5 -49 13 101 53 162 116 175 39 7 83 -34 85 -80 1 -17 6 5 10 49
10 87 -2 184 -27 223 -15 24 -38 28 -66 11z"/>
<path d="M6341 12284 c0 -11 3 -14 6 -6 3 7 2 16 -1 19 -3 4 -6 -2 -5 -13z"/>
<path d="M26912 12194 c-11 -21 -41 -95 -67 -164 -88 -231 -324 -776 -680
-1570 -98 -217 -186 -420 -195 -450 -10 -30 -83 -199 -162 -375 -209 -463
-310 -708 -306 -742 4 -36 29 -41 67 -13 27 19 29 23 20 50 -22 62 9 145 263
710 88 195 207 459 263 585 57 127 141 313 188 415 296 647 648 1490 647 1551
0 8 -4 20 -9 28 -7 11 -14 5 -29 -25z"/>
<path d="M6311 12184 c0 -11 3 -14 6 -6 3 7 2 16 -1 19 -3 4 -6 -2 -5 -13z"/>
<path d="M9446 12079 c-18 -174 -88 -345 -216 -521 -38 -53 -70 -106 -70 -116
0 -11 11 -27 24 -36 24 -15 25 -15 31 14 4 16 32 71 62 122 121 200 170 337
180 506 7 116 -1 138 -11 31z"/>
<path d="M8985 11698 c5 -12 14 -39 20 -58 l13 -35 17 40 c9 22 19 43 22 47 2
4 -3 5 -12 2 -8 -4 -27 1 -41 11 -26 16 -26 16 -19 -7z"/>
<path d="M23030 11212 c6 -13 14 -21 18 -18 3 4 -2 14 -12 24 -18 16 -18 16
-6 -6z"/>
<path d="M22193 11083 c0 -79 4 -143 8 -143 18 0 31 42 20 64 -7 12 -16 66
-20 121 l-9 100 1 -142z"/>
<path d="M8785 11124 c-153 -106 -479 -252 -537 -240 -16 3 -28 2 -28 -2 0
-16 25 -32 48 -32 46 0 235 71 353 131 l117 61 43 -22 c24 -12 56 -34 71 -47
l27 -26 5 24 c17 70 36 173 36 190 0 36 -50 22 -135 -37z"/>
<path d="M22395 11129 c-6 -25 20 -268 30 -278 15 -14 16 23 5 141 -13 141
-24 182 -35 137z"/>
<path d="M4205 11033 c64 -124 144 -221 270 -328 46 -39 242 -151 250 -143 2
2 -71 71 -162 153 -91 83 -217 204 -281 270 l-115 120 38 -72z"/>
<path d="M12079 11036 c-113 -93 -307 -322 -425 -501 -78 -119 -211 -355 -221
-394 -3 -14 -1 -26 7 -31 7 -4 10 -15 7 -24 -5 -13 1 -12 35 5 81 41 99 59 92
94 -12 66 69 225 213 417 113 150 208 222 264 201 27 -10 28 -9 59 61 18 39
45 97 61 128 16 32 26 64 23 73 -12 29 -59 17 -115 -29z"/>
<path d="M24750 11061 c0 -5 29 -41 64 -80 63 -68 86 -102 101 -149 6 -21 3
-20 -44 13 l-50 36 34 -57 c40 -67 43 -93 14 -120 -38 -34 -199 -277 -199
-300 0 -14 8 -25 21 -29 25 -8 20 -13 54 63 35 77 130 172 174 172 46 0 70
-36 81 -125 15 -115 24 -106 16 17 -13 233 -70 391 -178 503 -59 60 -88 79
-88 56z"/>
<path d="M12497 11054 c-4 -4 -7 -21 -7 -38 0 -48 -64 -292 -99 -380 -70 -174
-203 -378 -317 -487 -114 -107 -227 -171 -371 -209 -88 -23 -162 -25 -262 -8
-90 15 -97 9 -150 -126 -104 -268 -142 -465 -111 -578 17 -59 26 -52 22 17 -5
82 11 173 54 307 64 198 114 241 299 258 121 12 163 21 245 52 192 74 372 243
503 473 94 164 192 443 212 601 7 52 -5 131 -18 118z"/>
<path d="M23087 11053 c-16 -15 -3 -39 53 -99 70 -75 81 -105 53 -137 -30 -33
-211 -288 -286 -403 -289 -441 -527 -1100 -454 -1257 18 -40 25 -33 19 21 -16
169 166 653 393 1046 97 169 227 359 287 419 52 53 61 58 94 55 26 -2 43 -11
57 -30 18 -24 21 -47 25 -185 2 -89 0 -188 -6 -228 -6 -38 -10 -71 -8 -73 3
-2 13 32 23 75 25 108 25 391 -1 513 -24 114 -65 217 -102 257 -28 30 -37 33
-86 33 -30 0 -58 -3 -61 -7z"/>
<path d="M10405 10887 c-138 -141 -327 -379 -408 -512 -27 -44 -71 -124 -99
-179 -43 -85 -48 -103 -43 -137 l7 -39 49 26 c69 38 81 54 82 116 2 40 12 74
39 129 83 168 257 396 343 449 35 22 70 27 98 15 14 -6 21 2 38 41 11 27 36
82 55 123 43 92 43 101 2 101 -29 0 -49 -16 -163 -133z"/>
<path d="M10900 10984 c0 -39 -48 -245 -77 -333 -57 -169 -188 -390 -307 -518
-37 -40 -105 -97 -149 -127 -178 -118 -339 -156 -514 -124 -62 11 -65 11 -87
-13 -27 -27 -101 -218 -140 -361 -32 -119 -43 -255 -26 -326 6 -29 15 -54 19
-56 3 -2 6 44 7 102 0 117 28 244 79 357 57 131 102 160 272 175 228 21 376
93 538 261 95 99 136 154 200 269 118 213 228 572 210 681 -8 44 -25 53 -25
13z"/>
<path d="M23393 11003 c-19 -7 -16 -48 4 -64 9 -8 32 -39 51 -69 19 -30 36
-56 37 -57 1 -2 19 6 40 17 56 29 108 25 298 -20 185 -43 240 -64 276 -104
l25 -26 43 42 c54 53 57 83 11 102 -44 18 -739 187 -762 185 -6 0 -17 -3 -23
-6z"/>
<path d="M20332 10977 c-17 -20 -222 -502 -352 -827 -65 -162 -146 -360 -180
-440 -89 -210 -157 -417 -150 -458 l5 -33 64 64 c38 40 59 67 52 71 -19 12
-12 111 12 183 41 121 395 1013 506 1276 39 92 71 170 71 173 0 9 -18 3 -28
-9z"/>
<path d="M21496 10858 c-76 -163 -215 -486 -308 -713 -49 -121 -111 -265 -138
-320 -83 -169 -220 -522 -220 -566 0 -13 4 -18 11 -13 9 5 10 -1 5 -21 l-7
-27 38 31 c92 75 93 76 83 91 -14 22 -12 90 5 148 16 53 312 797 408 1027 30
72 81 191 112 265 78 185 76 178 64 185 -5 4 -29 -35 -53 -87z"/>
<path d="M22452 10809 c2 -6 8 -10 13 -10 5 0 11 4 13 10 2 6 -4 11 -13 11 -9
0 -15 -5 -13 -11z"/>
<path d="M9452 10776 c-9 -141 -67 -416 -129 -609 -76 -236 -252 -634 -333
-752 -42 -62 -81 -145 -155 -330 -150 -374 -169 -465 -141 -659 9 -64 14 -121
11 -126 -10 -16 -85 29 -141 85 -63 62 -123 178 -159 302 -14 48 -32 103 -41
121 -8 18 -19 79 -24 135 l-9 102 4 -135 c5 -149 28 -260 85 -407 51 -135 81
-171 180 -220 47 -23 98 -45 114 -49 28 -7 29 -6 23 27 -19 103 -28 222 -23
282 12 135 134 458 298 790 115 233 165 315 223 366 56 49 61 38 68 -157 4
-141 9 -181 31 -256 52 -173 79 -210 271 -365 139 -113 167 -125 285 -125 111
0 161 17 290 94 112 68 247 178 416 341 161 156 196 176 259 146 28 -13 42
-33 81 -114 25 -54 55 -110 66 -125 32 -46 269 -239 324 -264 152 -71 325 -24
564 154 289 216 581 539 848 943 151 229 336 529 329 535 -13 13 -48 -27 -116
-133 -438 -682 -919 -1202 -1277 -1380 -87 -43 -102 -47 -183 -51 -102 -5
-163 10 -251 64 -57 34 -72 47 -169 154 -92 102 -145 228 -159 385 -7 77 -8
80 -33 83 -23 3 -45 -17 -160 -144 -196 -216 -421 -411 -585 -508 -152 -90
-291 -100 -429 -32 -98 49 -253 194 -295 276 -60 119 -73 180 -78 377 l-4 181
41 151 c23 83 57 194 76 247 39 108 39 108 25 99 -43 -26 -52 98 -24 324 8 71
14 146 11 167 -3 30 -4 32 -5 10z"/>
<path d="M22252 10743 c-7 -3 -45 -69 -84 -146 -188 -377 -452 -768 -798
-1182 -260 -311 -362 -412 -473 -466 -68 -33 -112 -18 -200 72 -78 79 -123
164 -133 251 -7 64 -20 83 -30 44 -9 -37 11 -148 42 -224 84 -211 231 -293
383 -212 31 17 84 55 119 86 136 121 488 548 690 836 123 176 221 295 275 335
27 20 32 21 47 8 14 -13 17 -11 29 23 39 111 165 351 218 415 28 35 29 56 3
107 -26 50 -54 67 -88 53z"/>
<path d="M23588 10450 c13 -146 6 -329 -17 -448 -12 -62 -19 -116 -17 -121 8
-12 -57 -230 -99 -336 -94 -237 -205 -415 -345 -555 -118 -118 -179 -151 -292
-158 -63 -4 -92 0 -150 19 -39 12 -79 30 -88 39 -9 9 -52 41 -95 71 -99 68
-254 215 -310 294 -100 142 -135 248 -144 440 l-6 140 -14 -103 c-16 -125 -6
-215 43 -362 58 -175 132 -275 314 -426 205 -170 290 -209 442 -202 76 3 98 9
157 38 137 70 301 265 412 493 67 135 167 366 191 438 25 74 41 227 46 454 4
152 1 194 -15 270 l-20 90 7 -75z"/>
<path d="M5700 10495 c0 -11 7 -33 15 -48 8 -15 17 -45 21 -65 10 -57 20 -69
27 -32 4 17 13 46 21 63 8 18 17 41 20 52 6 19 5 19 -8 3 -7 -10 -25 -18 -40
-18 -21 0 -30 7 -41 33 -10 23 -14 26 -15 12z"/>
<path d="M16680 10503 c-30 -12 -55 -42 -223 -263 -959 -1264 -1651 -2087
-2110 -2509 -438 -402 -636 -506 -844 -442 -122 36 -269 146 -374 278 -54 68
-119 133 -133 133 -14 0 -4 -21 48 -97 29 -44 56 -92 60 -106 10 -42 131 -162
228 -227 220 -147 387 -134 658 51 252 172 653 563 1036 1010 383 447 836
1006 1194 1474 421 550 423 552 538 576 62 13 301 3 667 -27 269 -22 335 -40
375 -106 l18 -31 15 51 c9 28 23 62 32 76 20 31 12 64 -20 76 -87 33 -1108
106 -1165 83z"/>
<path d="M15615 10479 c-530 -36 -894 -106 -1207 -230 -211 -83 -365 -178
-495 -302 -96 -92 -144 -160 -179 -254 -28 -75 -46 -233 -25 -233 6 0 11 15
11 35 0 89 80 234 190 345 100 101 191 164 355 245 332 164 674 244 1215 284
149 11 207 5 252 -29 l29 -21 59 63 c33 35 59 68 60 75 0 16 -56 33 -104 32
-23 -1 -95 -6 -161 -10z"/>
<path d="M20783 10387 c-23 -23 -80 -107 -129 -187 -134 -222 -273 -435 -427
-655 -215 -306 -271 -379 -356 -464 -83 -83 -146 -121 -202 -121 -53 0 -132
45 -190 108 -59 65 -94 133 -114 224 l-13 63 -1 -50 c-1 -68 14 -125 53 -210
76 -165 206 -243 333 -201 123 41 259 201 622 735 130 190 179 252 225 281 43
26 65 25 75 -1 6 -17 14 1 39 87 18 60 55 181 82 269 27 88 48 161 46 162 -1
1 -21 -16 -43 -40z"/>
<path d="M24603 10328 c-59 -63 -224 -365 -317 -580 -130 -299 -196 -557 -166
-654 7 -26 8 -23 9 21 3 141 105 436 259 745 95 192 150 276 236 363 l68 68
46 -29 c26 -16 74 -44 107 -61 l60 -31 24 -78 24 -77 23 69 c28 82 23 92 -54
121 -67 25 -180 83 -229 116 -50 35 -63 36 -90 7z"/>
<path d="M18508 10298 c-33 -26 -248 -738 -371 -1233 -163 -650 -242 -1100
-252 -1420 l-4 -150 9 115 c27 348 94 715 230 1275 91 375 289 1062 336 1165
67 146 134 159 469 90 399 -83 487 -112 531 -177 l21 -32 22 65 c27 83 27 91
-7 108 -57 30 -502 132 -786 181 -170 29 -177 29 -198 13z"/>
<path d="M7715 10183 c-946 -20 -1333 -46 -1376 -90 -28 -29 -261 -886 -449
-1648 -168 -685 -190 -791 -190 -937 0 -110 -32 -122 -152 -60 -165 85 -345
242 -369 321 -14 47 -31 46 -22 -2 13 -67 75 -171 142 -237 75 -75 176 -145
228 -159 44 -12 150 -3 167 15 8 7 16 53 20 109 3 53 18 156 31 228 44 236
445 1808 529 2072 65 205 118 232 501 255 94 5 375 14 625 20 250 6 477 15
504 21 27 5 62 21 78 34 25 21 40 25 100 25 61 0 69 2 66 18 -3 15 -19 17
-158 17 -85 1 -209 0 -275 -2z"/>
<path d="M25314 10130 c-31 -12 -36 -24 -39 -93 -6 -148 -120 -535 -218 -737
-81 -169 -165 -290 -276 -400 -204 -203 -369 -217 -615 -56 -275 180 -443 410
-486 664 l-8 47 -1 -51 c-1 -72 42 -233 89 -329 64 -131 127 -205 284 -329 78
-62 157 -122 176 -133 62 -37 155 -63 228 -63 145 0 227 47 431 245 136 131
181 161 181 118 1 -15 2 -16 9 -3 10 16 271 726 271 735 0 4 -5 3 -10 0 -40
-25 -55 86 -20 143 25 41 46 49 70 27 19 -17 20 -17 41 31 12 27 31 72 44 101
22 48 22 53 7 66 -20 17 -128 29 -158 17z"/>
<path d="M26858 10109 c-9 -5 -28 -30 -44 -56 -55 -96 -219 -351 -305 -473
-216 -311 -412 -542 -634 -750 -110 -103 -165 -162 -165 -175 1 -11 14 -35 29
-53 l29 -34 18 37 c9 21 78 101 152 178 289 304 475 548 724 952 210 341 241
399 196 374z"/>
<path d="M22032 9860 c0 -14 2 -19 5 -12 2 6 2 18 0 25 -3 6 -5 1 -5 -13z"/>
<path d="M13444 9655 c3 -66 12 -116 35 -185 52 -162 133 -279 364 -528 167
-179 207 -232 276 -362 40 -76 50 -88 60 -76 7 9 10 25 6 38 -10 32 -84 158
-94 158 -4 0 -22 20 -40 45 -17 24 -76 92 -129 151 -277 305 -357 420 -426
613 -15 41 -33 111 -41 155 l-15 81 4 -90z"/>
<path d="M16819 9478 c-63 -90 -571 -749 -778 -1008 -247 -311 -653 -800 -839
-1010 -483 -548 -978 -986 -1249 -1106 -89 -40 -243 -74 -332 -74 -106 0 -269
39 -377 89 -76 36 -83 38 -73 18 51 -99 191 -253 266 -292 21 -11 40 -22 43
-26 3 -3 34 -16 70 -29 95 -36 238 -34 330 5 36 14 72 28 82 30 26 6 145 83
235 152 45 35 85 63 89 62 21 -5 367 341 610 611 135 150 192 217 491 575 97
116 185 219 197 230 12 11 44 47 72 80 27 33 63 76 80 95 18 19 80 96 139 170
60 74 120 149 136 165 35 39 158 181 189 221 177 221 226 281 235 289 6 6 38
44 70 85 101 127 217 234 298 273 82 39 184 66 272 72 106 6 99 -2 141 171 20
85 35 156 33 159 -4 4 -323 25 -378 25 -22 0 -35 -8 -52 -32z"/>
<path d="M18728 9212 c-31 -87 -129 -425 -125 -429 2 -1 16 18 33 44 16 25 45
61 64 79 43 41 156 83 233 85 l57 2 0 124 c0 119 -1 123 -22 128 -13 3 -61 14
-108 25 -47 11 -89 20 -95 20 -5 0 -22 -35 -37 -78z"/>
<path d="M7165 9179 c-386 -10 -544 -21 -555 -39 -6 -10 -45 -154 -96 -355 -4
-13 7 -5 30 21 20 23 57 55 83 72 71 45 233 96 388 122 198 33 333 52 430 60
338 29 379 39 383 89 2 22 -3 30 -20 35 -28 7 -230 5 -643 -5z"/>
<path d="M14292 9163 c-35 -21 -40 -28 -31 -40 7 -7 15 -10 18 -6 3 4 19 23
35 41 35 38 34 39 -22 5z"/>
<path d="M12553 8616 c-192 -215 -506 -467 -709 -571 -94 -47 -284 -95 -378
-95 -99 0 -288 48 -371 95 -99 55 -217 148 -289 227 l-65 71 -30 -24 c-180
-148 -229 -186 -311 -241 -128 -87 -206 -123 -325 -153 -159 -40 -338 -28
-490 31 -72 28 -238 146 -330 235 l-90 87 -36 -97 c-34 -90 -36 -104 -33 -186
2 -48 6 -90 8 -92 2 -3 18 3 36 12 58 30 85 20 270 -92 295 -180 537 -193 810
-44 47 25 93 49 103 54 11 4 47 26 80 49 34 23 73 49 87 58 69 45 186 92 232
92 53 -1 124 -29 177 -70 20 -15 43 -31 52 -37 9 -5 36 -23 59 -40 74 -51 94
-63 140 -85 131 -62 252 -81 389 -61 79 12 111 22 198 62 179 81 456 312 646
538 87 103 290 392 274 391 -1 0 -48 -51 -104 -114z"/>
<path d="M25386 8623 c-7 -16 -46 -109 -86 -208 -39 -99 -87 -210 -106 -248
-54 -104 -204 -535 -298 -852 -92 -312 -173 -715 -211 -1045 -18 -164 -19
-204 -4 -194 8 5 10 -6 7 -35 -2 -22 -1 -41 2 -41 8 0 100 163 100 176 0 5
-10 14 -22 19 -27 12 -36 41 -37 118 -2 119 67 494 140 762 85 312 269 852
347 1018 42 91 103 167 133 167 35 0 52 -54 46 -144 l-5 -81 13 90 c16 107 21
202 17 388 -2 140 -9 161 -36 110z"/>
<path d="M21623 8501 c-62 -75 -152 -178 -200 -230 -87 -94 -251 -225 -345
-276 -50 -27 -188 -65 -237 -65 -45 0 -172 31 -216 53 -127 63 -264 196 -340
329 l-22 38 -69 -81 c-70 -82 -144 -146 -244 -212 -40 -27 -85 -43 -164 -63
l-110 -26 -85 17 c-119 24 -166 41 -233 87 l-58 39 17 -43 c28 -73 94 -171
147 -221 68 -63 140 -92 231 -91 131 1 219 47 390 204 113 103 157 130 214
130 51 0 84 -28 158 -133 32 -45 78 -102 103 -127 85 -85 228 -140 329 -125
170 23 289 123 593 495 115 141 196 217 240 225 81 15 130 -35 247 -254 104
-195 285 -372 492 -480 103 -54 230 -91 314 -91 72 0 172 24 246 58 68 31 227
146 319 232 52 48 118 87 163 96 11 2 42 -4 68 -12 45 -15 77 -39 304 -227 44
-37 127 -95 165 -116 72 -40 179 -89 205 -94 l30 -6 28 107 c15 59 27 112 27
118 0 6 -36 18 -80 28 -104 22 -219 81 -346 176 -141 107 -224 181 -296 267
-33 40 -64 73 -68 73 -4 0 -33 -33 -64 -74 -101 -132 -272 -275 -389 -325 -61
-26 -228 -61 -293 -61 -75 0 -265 44 -340 79 -122 57 -352 227 -470 349 -72
73 -153 186 -209 293 l-40 75 -112 -135z"/>
<path d="M25787 8295 c-49 -443 -182 -844 -524 -1575 -197 -424 -325 -643
-437 -748 -86 -82 -130 -81 -212 1 -58 58 -73 96 -101 257 -23 128 -23 477 1
689 18 162 16 216 -3 84 -31 -218 -35 -287 -35 -523 -1 -229 2 -266 22 -360
24 -111 43 -148 110 -217 71 -73 153 -76 229 -10 58 51 148 169 218 288 164
275 441 892 564 1253 140 409 219 802 195 961 -9 60 -9 60 -27 -100z"/>
<path d="M26272 8070 c-100 -106 -103 -111 -100 -151 l3 -41 34 49 c93 131
174 253 169 253 -2 0 -49 -49 -106 -110z"/>
<path d="M17356 7981 c14 -256 105 -508 251 -690 63 -79 136 -137 183 -147 14
-3 58 -20 98 -39 80 -39 92 -41 92 -21 0 7 -25 26 -56 41 -81 39 -204 136
-276 215 -157 173 -248 383 -288 667 -9 66 -9 65 -4 -26z"/>
<path d="M25381 7994 c0 -11 3 -14 6 -6 3 7 2 16 -1 19 -3 4 -6 -2 -5 -13z"/>
<path d="M8350 7433 c0 -18 71 -134 100 -163 36 -35 104 -74 150 -84 42 -9
109 14 148 52 l37 36 -55 7 c-115 13 -220 50 -302 105 -43 28 -78 50 -78 47z"/>
<path d="M24531 7104 c0 -11 3 -14 6 -6 3 7 2 16 -1 19 -3 4 -6 -2 -5 -13z"/>
<path d="M5146 6623 c20 -97 135 -258 229 -323 94 -65 233 -71 315 -15 32 22
116 143 106 152 -2 2 -23 -1 -47 -6 -67 -16 -115 -13 -214 13 -107 27 -163 54
-291 141 -52 36 -97 65 -100 65 -2 0 -2 -12 2 -27z"/>
<path d="M17389 6438 c38 -100 131 -239 204 -304 65 -58 123 -85 198 -91 48
-5 63 -2 93 17 20 12 41 30 46 40 8 16 2 20 -58 34 -37 10 -89 29 -117 43 -80
41 -232 150 -307 221 -51 49 -66 59 -59 40z"/>
<path d="M25137 5126 c-63 -71 -198 -172 -250 -187 -17 -5 -64 -16 -102 -24
-65 -13 -78 -13 -165 5 -51 11 -104 27 -117 35 -28 19 -28 16 -3 -40 86 -188
297 -219 461 -68 57 53 148 177 209 286 17 31 30 57 28 57 -1 0 -29 -29 -61
-64z"/>
</g>
</svg>
